ISO-10303-21;
HEADER;
/* Generated by software containing ST-Developer
 * from STEP Tools, Inc. (www.steptools.com) 
 */
/* OPTION: using custom renumber hook */

FILE_DESCRIPTION(
/* description */ ('STEP AP242 Edition 2',
'CAx-IF Rec.Pracs.---Representation and Presentation of Product Manufa
cturing Information (PMI)---4.0---2014-10-13',
'CAx-IF Rec.Pracs.---3D Tessellated Geometry---0.4---2014-09-14','2;1',
'CAx-IF Rec.Pracs.---User Defined Attributes---1.5---2016-08-15'),
/* implementation_level */ '2;1');

FILE_NAME(
/* name */ 'Part Studio 1 - Part 1',
/* time_stamp */ '2026-07-03T19:34:07Z',
/* author */ (''),
/* organization */ (''),
/* preprocessor_version */ 'ST-DEVELOPER v20',
/* originating_system */ 'ONSHAPE BY PTC INC, 1.217',
/* authorisation */ '  ');

FILE_SCHEMA (('AP242_MANAGED_MODEL_BASED_3D_ENGINEERING_MIM_LF { 1 0 10303 442 3 1 4 }'));
ENDSEC;

DATA;
#10=SHAPE_REPRESENTATION_RELATIONSHIP('','',#69,#11);
#11=ADVANCED_BREP_SHAPE_REPRESENTATION('',(#67),#251);
#12=PLANE('',#71);
#13=PLANE('',#72);
#14=LINE('',#144,#16);
#15=LINE('',#167,#17);
#16=VECTOR('',#75,1.);
#17=VECTOR('',#76,1.);
#18=ORIENTED_EDGE('',*,*,#30,.F.);
#19=ORIENTED_EDGE('',*,*,#31,.F.);
#20=ORIENTED_EDGE('',*,*,#32,.T.);
#21=ORIENTED_EDGE('',*,*,#33,.T.);
#22=ORIENTED_EDGE('',*,*,#34,.T.);
#23=ORIENTED_EDGE('',*,*,#33,.F.);
#24=ORIENTED_EDGE('',*,*,#35,.F.);
#25=ORIENTED_EDGE('',*,*,#31,.T.);
#26=ORIENTED_EDGE('',*,*,#32,.F.);
#27=ORIENTED_EDGE('',*,*,#35,.T.);
#28=ORIENTED_EDGE('',*,*,#30,.T.);
#29=ORIENTED_EDGE('',*,*,#34,.F.);
#30=EDGE_CURVE('',#36,#37,#40,.T.);
#31=EDGE_CURVE('',#38,#36,#14,.T.);
#32=EDGE_CURVE('',#38,#39,#41,.T.);
#33=EDGE_CURVE('',#39,#37,#15,.T.);
#34=EDGE_CURVE('',#36,#37,#42,.T.);
#35=EDGE_CURVE('',#38,#39,#43,.T.);
#36=VERTEX_POINT('',#142);
#37=VERTEX_POINT('',#143);
#38=VERTEX_POINT('',#145);
#39=VERTEX_POINT('',#166);
#40=B_SPLINE_CURVE_WITH_KNOTS('',3,(#122,#123,#124,#125,#126,#127,#128,
#129,#130,#131,#132,#133,#134,#135,#136,#137,#138,#139,#140,#141),
 .UNSPECIFIED.,.F.,.F.,(4,1,1,1,1,1,1,1,1,1,1,1,1,1,1,1,1,4),(0.,0.0392111853352729,
0.0697245848036655,0.110939653735197,0.151294686308617,0.191296153301858,
0.247420705637515,0.303252245878241,0.358943583964594,0.414566198929454,
0.493195061539058,0.571884237818122,0.650663625389374,0.729563515038466,
0.808590037457396,0.887760211494631,0.943843208656539,1.),.UNSPECIFIED.);
#41=B_SPLINE_CURVE_WITH_KNOTS('',3,(#146,#147,#148,#149,#150,#151,#152,
#153,#154,#155,#156,#157,#158,#159,#160,#161,#162,#163,#164,#165),
 .UNSPECIFIED.,.F.,.F.,(4,1,1,1,1,1,1,1,1,1,1,1,1,1,1,1,1,4),(0.,0.0392111853352729,
0.0697245848036655,0.110939653735197,0.151294686308617,0.191296153301858,
0.247420705637515,0.303252245878241,0.358943583964594,0.414566198929454,
0.493195061539058,0.571884237818122,0.650663625389374,0.729563515038466,
0.808590037457396,0.887760211494631,0.943843208656539,1.),.UNSPECIFIED.);
#42=B_SPLINE_CURVE_WITH_KNOTS('',3,(#208,#209,#210,#211,#212,#213,#214,
#215,#216,#217,#218,#219,#220,#221,#222,#223,#224,#225,#226,#227),
 .UNSPECIFIED.,.F.,.F.,(4,1,1,1,1,1,1,1,1,1,1,1,1,1,1,1,1,4),(0.,0.0361186348750836,
0.0657723787566951,0.106307597622095,0.146318249228245,0.186144080536838,
0.242347059412577,0.298490884015964,0.354625280454026,0.410765233350045,
0.490171493725273,0.569599400980794,0.649052025875997,0.728514151416072,
0.80798126343085,0.887458820254631,0.943657939636866,1.),.UNSPECIFIED.);
#43=B_SPLINE_CURVE_WITH_KNOTS('',3,(#228,#229,#230,#231,#232,#233,#234,
#235,#236,#237,#238,#239,#240,#241,#242,#243,#244,#245,#246,#247),
 .UNSPECIFIED.,.F.,.F.,(4,1,1,1,1,1,1,1,1,1,1,1,1,1,1,1,1,4),(0.,0.0361186348750836,
0.0657723787566951,0.106307597622095,0.146318249228245,0.186144080536838,
0.242347059412577,0.298490884015964,0.354625280454026,0.410765233350045,
0.490171493725273,0.569599400980794,0.649052025875997,0.728514151416072,
0.80798126343085,0.887458820254631,0.943657939636866,1.),.UNSPECIFIED.);
#44=EDGE_LOOP('',(#18,#19,#20,#21));
#45=EDGE_LOOP('',(#22,#23,#24,#25));
#46=EDGE_LOOP('',(#26,#27));
#47=EDGE_LOOP('',(#28,#29));
#48=FACE_BOUND('',#44,.T.);
#49=FACE_BOUND('',#45,.T.);
#50=FACE_BOUND('',#46,.T.);
#51=FACE_BOUND('',#47,.T.);
#52=B_SPLINE_SURFACE_WITH_KNOTS('',3,1,((#82,#83),(#84,#85),(#86,#87),(#88,
#89),(#90,#91),(#92,#93),(#94,#95),(#96,#97),(#98,#99),(#100,#101),(#102,
#103),(#104,#105),(#106,#107),(#108,#109),(#110,#111),(#112,#113),(#114,
#115),(#116,#117),(#118,#119),(#120,#121)),.SURF_OF_LINEAR_EXTRUSION.,.F.,
 .F.,.F.,(4,1,1,1,1,1,1,1,1,1,1,1,1,1,1,1,1,4),(2,2),(0.,0.0392111853352729,
0.0697245848036655,0.110939653735197,0.151294686308617,0.191296153301858,
0.247420705637515,0.303252245878241,0.358943583964594,0.414566198929454,
0.493195061539058,0.571884237818122,0.650663625389374,0.729563515038466,
0.808590037457396,0.887760211494631,0.943843208656539,1.),(0.,1.),
 .UNSPECIFIED.);
#53=B_SPLINE_SURFACE_WITH_KNOTS('',3,1,((#168,#169),(#170,#171),(#172,#173),
(#174,#175),(#176,#177),(#178,#179),(#180,#181),(#182,#183),(#184,#185),
(#186,#187),(#188,#189),(#190,#191),(#192,#193),(#194,#195),(#196,#197),
(#198,#199),(#200,#201),(#202,#203),(#204,#205),(#206,#207)),
 .SURF_OF_LINEAR_EXTRUSION.,.F.,.F.,.F.,(4,1,1,1,1,1,1,1,1,1,1,1,1,1,1,
1,1,4),(2,2),(0.,0.0361186348750836,0.0657723787566951,0.106307597622095,
0.146318249228245,0.186144080536838,0.242347059412577,0.298490884015964,
0.354625280454026,0.410765233350045,0.490171493725273,0.569599400980794,
0.649052025875997,0.728514151416072,0.80798126343085,0.887458820254631,
0.943657939636866,1.),(0.,1.),.UNSPECIFIED.);
#54=ADVANCED_FACE('',(#48),#52,.T.);
#55=ADVANCED_FACE('',(#49),#53,.F.);
#56=ADVANCED_FACE('',(#50),#12,.T.);
#57=ADVANCED_FACE('',(#51),#13,.F.);
#58=CLOSED_SHELL('',(#54,#55,#56,#57));
#59=STYLED_ITEM('',(#60),#67);
#60=PRESENTATION_STYLE_ASSIGNMENT((#61));
#61=SURFACE_STYLE_USAGE(.BOTH.,#62);
#62=SURFACE_SIDE_STYLE('',(#63));
#63=SURFACE_STYLE_FILL_AREA(#64);
#64=FILL_AREA_STYLE('',(#65));
#65=FILL_AREA_STYLE_COLOUR('',#66);
#66=COLOUR_RGB('',0.615686274509804,0.811764705882353,0.929411764705882);
#67=MANIFOLD_SOLID_BREP('Part 1',#58);
#68=SHAPE_DEFINITION_REPRESENTATION(#256,#69);
#69=SHAPE_REPRESENTATION('Part 1',(#70),#251);
#70=AXIS2_PLACEMENT_3D('',#81,#73,#74);
#71=AXIS2_PLACEMENT_3D('',#248,#77,#78);
#72=AXIS2_PLACEMENT_3D('',#249,#79,#80);
#73=DIRECTION('',(0.,0.,1.));
#74=DIRECTION('',(1.,0.,0.));
#75=DIRECTION('',(0.,1.,0.));
#76=DIRECTION('',(0.,1.,0.));
#77=DIRECTION('',(0.,-1.,0.));
#78=DIRECTION('',(1.,0.,0.));
#79=DIRECTION('',(0.,-1.,0.));
#80=DIRECTION('',(1.,0.,0.));
#81=CARTESIAN_POINT('',(0.,0.,0.));
#82=CARTESIAN_POINT('',(0.,-0.01,0.));
#83=CARTESIAN_POINT('',(0.,-8.67361737988404E-18,0.));
#84=CARTESIAN_POINT('',(0.000796818909521415,-0.01,0.00164779175193994));
#85=CARTESIAN_POINT('',(0.000796818909521415,-8.67361737988404E-18,0.00164779175193994));
#86=CARTESIAN_POINT('',(0.00221370715595023,-0.01,0.00457786373942369));
#87=CARTESIAN_POINT('',(0.00221370715595023,-8.67361737988404E-18,0.00457786373942369));
#88=CARTESIAN_POINT('',(0.00501924593453269,-0.01,0.00600312809760521));
#89=CARTESIAN_POINT('',(0.00501924593453269,-8.67361737988404E-18,0.00600312809760521));
#90=CARTESIAN_POINT('',(0.0100243885712756,-0.01,0.00843054937308719));
#91=CARTESIAN_POINT('',(0.0100243885712756,-8.67361737988404E-18,0.00843054937308719));
#92=CARTESIAN_POINT('',(0.0150866456708214,-0.01,0.00995908356134835));
#93=CARTESIAN_POINT('',(0.0150866456708214,-8.67361737988404E-18,0.00995908356134835));
#94=CARTESIAN_POINT('',(0.0200870832774238,-0.01,0.0113819355482962));
#95=CARTESIAN_POINT('',(0.0200870832774238,-8.67361737988404E-18,0.0113819355482962));
#96=CARTESIAN_POINT('',(0.0302521556679598,-0.01,0.0133874444166289));
#97=CARTESIAN_POINT('',(0.0302521556679598,-8.67361737988404E-18,0.0133874444166289));
#98=CARTESIAN_POINT('',(0.0398475206953387,-0.01,0.0145792611240557));
#99=CARTESIAN_POINT('',(0.0398475206953387,-8.67361737988404E-18,0.0145792611240557));
#100=CARTESIAN_POINT('',(0.0502779932296614,-0.01,0.0154071691603135));
#101=CARTESIAN_POINT('',(0.0502779932296614,-8.67361737988404E-18,0.0154071691603135));
#102=CARTESIAN_POINT('',(0.0602067674723584,-0.01,0.0158877805138126));
#103=CARTESIAN_POINT('',(0.0602067674723584,-8.67361737988404E-18,0.0158877805138126));
#104=CARTESIAN_POINT('',(0.0805391807473979,-0.01,0.0157837713283145));
#105=CARTESIAN_POINT('',(0.0805391807473979,-8.67361737988404E-18,0.0157837713283145));
#106=CARTESIAN_POINT('',(0.0998780741309725,-0.01,0.0145642376284094));
#107=CARTESIAN_POINT('',(0.0998780741309725,-8.67361737988404E-18,0.0145642376284094));
#108=CARTESIAN_POINT('',(0.120016492698565,-0.01,0.012834142803281));
#109=CARTESIAN_POINT('',(0.120016492698565,-8.67361737988404E-18,0.012834142803281));
#110=CARTESIAN_POINT('',(0.140146210124966,-0.01,0.0104098276657032));
#111=CARTESIAN_POINT('',(0.140146210124966,-8.67361737988404E-18,0.0104098276657032));
#112=CARTESIAN_POINT('',(0.159494497685993,-0.01,0.00767400143240902));
#113=CARTESIAN_POINT('',(0.159494497685993,-8.67361737988404E-18,0.00767400143240902));
#114=CARTESIAN_POINT('',(0.179788261890247,-0.01,0.00424799491552188));
#115=CARTESIAN_POINT('',(0.179788261890247,-8.67361737988404E-18,0.00424799491552188));
#116=CARTESIAN_POINT('',(0.189759549504386,-0.01,0.00234882739344962));
#117=CARTESIAN_POINT('',(0.189759549504386,-8.67361737988404E-18,0.00234882739344962));
#118=CARTESIAN_POINT('',(0.19658502065623,-0.01,0.000956580917449494));
#119=CARTESIAN_POINT('',(0.19658502065623,-8.67361737988404E-18,0.000956580917449494));
#120=CARTESIAN_POINT('',(0.2,-0.01,0.00026));
#121=CARTESIAN_POINT('',(0.2,-8.67361737988404E-18,0.00026));
#122=CARTESIAN_POINT('',(0.,0.,0.));
#123=CARTESIAN_POINT('',(0.000796818909521415,0.,0.00164779175193994));
#124=CARTESIAN_POINT('',(0.00221370715595023,0.,0.00457786373942369));
#125=CARTESIAN_POINT('',(0.00501924593453269,0.,0.00600312809760521));
#126=CARTESIAN_POINT('',(0.0100243885712756,0.,0.00843054937308719));
#127=CARTESIAN_POINT('',(0.0150866456708214,0.,0.00995908356134835));
#128=CARTESIAN_POINT('',(0.0200870832774238,0.,0.0113819355482962));
#129=CARTESIAN_POINT('',(0.0302521556679598,0.,0.0133874444166289));
#130=CARTESIAN_POINT('',(0.0398475206953387,0.,0.0145792611240557));
#131=CARTESIAN_POINT('',(0.0502779932296614,0.,0.0154071691603135));
#132=CARTESIAN_POINT('',(0.0602067674723584,0.,0.0158877805138126));
#133=CARTESIAN_POINT('',(0.0805391807473979,0.,0.0157837713283145));
#134=CARTESIAN_POINT('',(0.0998780741309725,0.,0.0145642376284094));
#135=CARTESIAN_POINT('',(0.120016492698565,0.,0.012834142803281));
#136=CARTESIAN_POINT('',(0.140146210124966,0.,0.0104098276657032));
#137=CARTESIAN_POINT('',(0.159494497685993,0.,0.00767400143240902));
#138=CARTESIAN_POINT('',(0.179788261890247,0.,0.00424799491552188));
#139=CARTESIAN_POINT('',(0.189759549504386,0.,0.00234882739344962));
#140=CARTESIAN_POINT('',(0.19658502065623,0.,0.000956580917449494));
#141=CARTESIAN_POINT('',(0.2,0.,0.00026));
#142=CARTESIAN_POINT('',(0.,0.,0.));
#143=CARTESIAN_POINT('',(0.2,0.,0.00026));
#144=CARTESIAN_POINT('',(0.,-0.01,0.));
#145=CARTESIAN_POINT('',(0.,-0.01,0.));
#146=CARTESIAN_POINT('',(0.,-0.01,0.));
#147=CARTESIAN_POINT('',(0.000796818909521415,-0.01,0.00164779175193994));
#148=CARTESIAN_POINT('',(0.00221370715595023,-0.01,0.00457786373942369));
#149=CARTESIAN_POINT('',(0.00501924593453269,-0.01,0.00600312809760521));
#150=CARTESIAN_POINT('',(0.0100243885712756,-0.01,0.00843054937308719));
#151=CARTESIAN_POINT('',(0.0150866456708214,-0.01,0.00995908356134835));
#152=CARTESIAN_POINT('',(0.0200870832774238,-0.01,0.0113819355482962));
#153=CARTESIAN_POINT('',(0.0302521556679598,-0.01,0.0133874444166289));
#154=CARTESIAN_POINT('',(0.0398475206953387,-0.01,0.0145792611240557));
#155=CARTESIAN_POINT('',(0.0502779932296614,-0.01,0.0154071691603135));
#156=CARTESIAN_POINT('',(0.0602067674723584,-0.01,0.0158877805138126));
#157=CARTESIAN_POINT('',(0.0805391807473979,-0.01,0.0157837713283145));
#158=CARTESIAN_POINT('',(0.0998780741309725,-0.01,0.0145642376284094));
#159=CARTESIAN_POINT('',(0.120016492698565,-0.01,0.012834142803281));
#160=CARTESIAN_POINT('',(0.140146210124966,-0.01,0.0104098276657032));
#161=CARTESIAN_POINT('',(0.159494497685993,-0.01,0.00767400143240902));
#162=CARTESIAN_POINT('',(0.179788261890247,-0.01,0.00424799491552188));
#163=CARTESIAN_POINT('',(0.189759549504386,-0.01,0.00234882739344962));
#164=CARTESIAN_POINT('',(0.19658502065623,-0.01,0.000956580917449494));
#165=CARTESIAN_POINT('',(0.2,-0.01,0.00026));
#166=CARTESIAN_POINT('',(0.2,-0.01,0.00026));
#167=CARTESIAN_POINT('',(0.2,-0.01,0.00026));
#168=CARTESIAN_POINT('',(0.,-0.01,0.));
#169=CARTESIAN_POINT('',(0.,-5.20417042793042E-18,0.));
#170=CARTESIAN_POINT('',(0.000810916107445054,-0.01,-0.0012710472947183));
#171=CARTESIAN_POINT('',(0.000810916107445054,-5.20417042793042E-18,-0.0012710472947183));
#172=CARTESIAN_POINT('',(0.0022876020769797,-0.01,-0.00358563654691498));
#173=CARTESIAN_POINT('',(0.0022876020769797,-5.20417042793042E-18,-0.00358563654691498));
#174=CARTESIAN_POINT('',(0.00503481564660989,-0.01,-0.00457638023804308));
#175=CARTESIAN_POINT('',(0.00503481564660989,-5.20417042793042E-18,-0.00457638023804308));
#176=CARTESIAN_POINT('',(0.0100498302221829,-0.01,-0.00617541201892984));
#177=CARTESIAN_POINT('',(0.0100498302221829,-5.20417042793042E-18,-0.00617541201892984));
#178=CARTESIAN_POINT('',(0.0150928655552656,-0.01,-0.00696009234650389));
#179=CARTESIAN_POINT('',(0.0150928655552656,-5.20417042793042E-18,-0.00696009234650389));
#180=CARTESIAN_POINT('',(0.0201097345576077,-0.01,-0.00756672908853235));
#181=CARTESIAN_POINT('',(0.0201097345576077,-5.20417042793042E-18,-0.00756672908853235));
#182=CARTESIAN_POINT('',(0.030274912951919,-0.01,-0.00830336047760404));
#183=CARTESIAN_POINT('',(0.030274912951919,-5.20417042793042E-18,-0.00830336047760404));
#184=CARTESIAN_POINT('',(0.0398584690657929,-0.01,-0.00849785491266336));
#185=CARTESIAN_POINT('',(0.0398584690657929,-5.20417042793042E-18,-0.00849785491266336));
#186=CARTESIAN_POINT('',(0.0502842701518714,-0.01,-0.00846511882626669));
#187=CARTESIAN_POINT('',(0.0502842701518714,-5.20417042793042E-18,-0.00846511882626669));
#188=CARTESIAN_POINT('',(0.0602109887934869,-0.01,-0.00825630010723803));
#189=CARTESIAN_POINT('',(0.0602109887934869,-5.20417042793042E-18,-0.00825630010723803));
#190=CARTESIAN_POINT('',(0.0805333162158708,-0.01,-0.0076370619366246));
#191=CARTESIAN_POINT('',(0.0805333162158708,-5.20417042793042E-18,-0.0076370619366246));
#192=CARTESIAN_POINT('',(0.0998705160639211,-0.01,-0.00672783133889944));
#193=CARTESIAN_POINT('',(0.0998705160639211,-5.20417042793042E-18,-0.00672783133889944));
#194=CARTESIAN_POINT('',(0.12000150611938,-0.01,-0.00553071777671055));
#195=CARTESIAN_POINT('',(0.12000150611938,-5.20417042793042E-18,-0.00553071777671055));
#196=CARTESIAN_POINT('',(0.140131584791728,-0.01,-0.00426880396849677));
#197=CARTESIAN_POINT('',(0.140131584791728,-5.20417042793042E-18,-0.00426880396849677));
#198=CARTESIAN_POINT('',(0.159476694469953,-0.01,-0.00307378383066997));
#199=CARTESIAN_POINT('',(0.159476694469953,-5.20417042793042E-18,-0.00307378383066997));
#200=CARTESIAN_POINT('',(0.179772465799082,-0.01,-0.00159554581963857));
#201=CARTESIAN_POINT('',(0.179772465799082,-5.20417042793042E-18,-0.00159554581963857));
#202=CARTESIAN_POINT('',(0.189768030721666,-0.01,-0.00111921852826435));
#203=CARTESIAN_POINT('',(0.189768030721666,-5.20417042793042E-18,-0.00111921852826435));
#204=CARTESIAN_POINT('',(0.196586456830511,-0.01,-0.000200128628059823));
#205=CARTESIAN_POINT('',(0.196586456830511,-5.20417042793042E-18,-0.000200128628059823));
#206=CARTESIAN_POINT('',(0.2,-0.01,0.00026));
#207=CARTESIAN_POINT('',(0.2,-5.20417042793042E-18,0.00026));
#208=CARTESIAN_POINT('',(0.,0.,0.));
#209=CARTESIAN_POINT('',(0.000810916107445054,0.,-0.0012710472947183));
#210=CARTESIAN_POINT('',(0.0022876020769797,0.,-0.00358563654691498));
#211=CARTESIAN_POINT('',(0.00503481564660989,0.,-0.00457638023804308));
#212=CARTESIAN_POINT('',(0.0100498302221829,0.,-0.00617541201892984));
#213=CARTESIAN_POINT('',(0.0150928655552656,0.,-0.00696009234650389));
#214=CARTESIAN_POINT('',(0.0201097345576077,0.,-0.00756672908853235));
#215=CARTESIAN_POINT('',(0.030274912951919,0.,-0.00830336047760404));
#216=CARTESIAN_POINT('',(0.0398584690657929,0.,-0.00849785491266336));
#217=CARTESIAN_POINT('',(0.0502842701518714,0.,-0.00846511882626669));
#218=CARTESIAN_POINT('',(0.0602109887934869,0.,-0.00825630010723803));
#219=CARTESIAN_POINT('',(0.0805333162158708,0.,-0.0076370619366246));
#220=CARTESIAN_POINT('',(0.0998705160639211,0.,-0.00672783133889944));
#221=CARTESIAN_POINT('',(0.12000150611938,0.,-0.00553071777671055));
#222=CARTESIAN_POINT('',(0.140131584791728,0.,-0.00426880396849677));
#223=CARTESIAN_POINT('',(0.159476694469953,0.,-0.00307378383066997));
#224=CARTESIAN_POINT('',(0.179772465799082,0.,-0.00159554581963857));
#225=CARTESIAN_POINT('',(0.189768030721666,0.,-0.00111921852826435));
#226=CARTESIAN_POINT('',(0.196586456830511,0.,-0.000200128628059823));
#227=CARTESIAN_POINT('',(0.2,0.,0.00026));
#228=CARTESIAN_POINT('',(0.,-0.01,0.));
#229=CARTESIAN_POINT('',(0.000810916107445054,-0.01,-0.0012710472947183));
#230=CARTESIAN_POINT('',(0.0022876020769797,-0.01,-0.00358563654691498));
#231=CARTESIAN_POINT('',(0.00503481564660989,-0.01,-0.00457638023804308));
#232=CARTESIAN_POINT('',(0.0100498302221829,-0.01,-0.00617541201892984));
#233=CARTESIAN_POINT('',(0.0150928655552656,-0.01,-0.00696009234650389));
#234=CARTESIAN_POINT('',(0.0201097345576077,-0.01,-0.00756672908853235));
#235=CARTESIAN_POINT('',(0.030274912951919,-0.01,-0.00830336047760404));
#236=CARTESIAN_POINT('',(0.0398584690657929,-0.01,-0.00849785491266336));
#237=CARTESIAN_POINT('',(0.0502842701518714,-0.01,-0.00846511882626669));
#238=CARTESIAN_POINT('',(0.0602109887934869,-0.01,-0.00825630010723803));
#239=CARTESIAN_POINT('',(0.0805333162158708,-0.01,-0.0076370619366246));
#240=CARTESIAN_POINT('',(0.0998705160639211,-0.01,-0.00672783133889944));
#241=CARTESIAN_POINT('',(0.12000150611938,-0.01,-0.00553071777671055));
#242=CARTESIAN_POINT('',(0.140131584791728,-0.01,-0.00426880396849677));
#243=CARTESIAN_POINT('',(0.159476694469953,-0.01,-0.00307378383066997));
#244=CARTESIAN_POINT('',(0.179772465799082,-0.01,-0.00159554581963857));
#245=CARTESIAN_POINT('',(0.189768030721666,-0.01,-0.00111921852826435));
#246=CARTESIAN_POINT('',(0.196586456830511,-0.01,-0.000200128628059823));
#247=CARTESIAN_POINT('',(0.2,-0.01,0.00026));
#248=CARTESIAN_POINT('',(0.1,-0.01,0.00369496280057462));
#249=CARTESIAN_POINT('',(0.1,0.,0.00369496280057462));
#250=MECHANICAL_DESIGN_GEOMETRIC_PRESENTATION_REPRESENTATION('',(#59),#251);
#251=(
GEOMETRIC_REPRESENTATION_CONTEXT(3)
GLOBAL_UNCERTAINTY_ASSIGNED_CONTEXT((#252))
GLOBAL_UNIT_ASSIGNED_CONTEXT((#255,#254,#253))
REPRESENTATION_CONTEXT('Part 1','TOP_LEVEL_ASSEMBLY_PART')
);
#252=UNCERTAINTY_MEASURE_WITH_UNIT(LENGTH_MEASURE(2.E-5),#255,
'DISTANCE_ACCURACY_VALUE','Maximum Tolerance applied to model');
#253=(
NAMED_UNIT(*)
SI_UNIT($,.STERADIAN.)
SOLID_ANGLE_UNIT()
);
#254=(
NAMED_UNIT(*)
PLANE_ANGLE_UNIT()
SI_UNIT($,.RADIAN.)
);
#255=(
LENGTH_UNIT()
NAMED_UNIT(*)
SI_UNIT($,.METRE.)
);
#256=PRODUCT_DEFINITION_SHAPE('','',#257);
#257=PRODUCT_DEFINITION('','',#259,#258);
#258=PRODUCT_DEFINITION_CONTEXT('',#265,'design');
#259=PRODUCT_DEFINITION_FORMATION_WITH_SPECIFIED_SOURCE('','',#261,
 .NOT_KNOWN.);
#260=PRODUCT_RELATED_PRODUCT_CATEGORY('','',(#261));
#261=PRODUCT('Part 1','Part 1','Part 1',(#263));
#262=PRODUCT_CATEGORY('','');
#263=PRODUCT_CONTEXT('',#265,'mechanical');
#264=APPLICATION_PROTOCOL_DEFINITION('international standard',
'ap242_managed_model_based_3d_engineering',2020,#265);
#265=APPLICATION_CONTEXT('managed model based 3d engineering');
ENDSEC;
END-ISO-10303-21;
