ISO-10303-21;
HEADER;
/* Generated by software containing ST-Developer
 * from STEP Tools, Inc. (www.steptools.com) 
 */
/* OPTION: using custom renumber hook */

FILE_DESCRIPTION(
/* description */ ('STEP AP242 Edition 2',
'CAx-IF Rec.Pracs.---Representation and Presentation of Product Manufa
cturing Information (PMI)---4.0---2014-10-13',
'CAx-IF Rec.Pracs.---3D Tessellated Geometry---0.4---2014-09-14','2;1',
'CAx-IF Rec.Pracs.---User Defined Attributes---1.5---2016-08-15'),
/* implementation_level */ '2;1');

FILE_NAME(
/* name */ 'Part Studio 1 - Part 1',
/* time_stamp */ '2026-07-05T18:53:14Z',
/* author */ (''),
/* organization */ (''),
/* preprocessor_version */ 'ST-DEVELOPER v20',
/* originating_system */ 'ONSHAPE BY PTC INC, 1.217',
/* authorisation */ '  ');

FILE_SCHEMA (('AP242_MANAGED_MODEL_BASED_3D_ENGINEERING_MIM_LF { 1 0 10303 442 3 1 4 }'));
ENDSEC;

DATA;
#10=SHAPE_REPRESENTATION_RELATIONSHIP('','',#90,#11);
#11=ADVANCED_BREP_SHAPE_REPRESENTATION('',(#88),#284);
#12=PLANE('',#92);
#13=PLANE('',#93);
#14=PLANE('',#94);
#15=LINE('',#168,#20);
#16=LINE('',#190,#21);
#17=LINE('',#255,#22);
#18=LINE('',#279,#23);
#19=LINE('',#280,#24);
#20=VECTOR('',#97,1.);
#21=VECTOR('',#98,1.);
#22=VECTOR('',#99,1.);
#23=VECTOR('',#102,1.);
#24=VECTOR('',#103,1.);
#25=ORIENTED_EDGE('',*,*,#43,.T.);
#26=ORIENTED_EDGE('',*,*,#44,.F.);
#27=ORIENTED_EDGE('',*,*,#45,.F.);
#28=ORIENTED_EDGE('',*,*,#46,.T.);
#29=ORIENTED_EDGE('',*,*,#47,.T.);
#30=ORIENTED_EDGE('',*,*,#48,.F.);
#31=ORIENTED_EDGE('',*,*,#49,.F.);
#32=ORIENTED_EDGE('',*,*,#44,.T.);
#33=ORIENTED_EDGE('',*,*,#50,.T.);
#34=ORIENTED_EDGE('',*,*,#46,.F.);
#35=ORIENTED_EDGE('',*,*,#51,.F.);
#36=ORIENTED_EDGE('',*,*,#48,.T.);
#37=ORIENTED_EDGE('',*,*,#45,.T.);
#38=ORIENTED_EDGE('',*,*,#49,.T.);
#39=ORIENTED_EDGE('',*,*,#51,.T.);
#40=ORIENTED_EDGE('',*,*,#43,.F.);
#41=ORIENTED_EDGE('',*,*,#50,.F.);
#42=ORIENTED_EDGE('',*,*,#47,.F.);
#43=EDGE_CURVE('',#52,#53,#58,.T.);
#44=EDGE_CURVE('',#54,#53,#15,.T.);
#45=EDGE_CURVE('',#55,#54,#59,.T.);
#46=EDGE_CURVE('',#55,#52,#16,.T.);
#47=EDGE_CURVE('',#53,#56,#60,.T.);
#48=EDGE_CURVE('',#57,#56,#17,.T.);
#49=EDGE_CURVE('',#54,#57,#61,.T.);
#50=EDGE_CURVE('',#56,#52,#18,.T.);
#51=EDGE_CURVE('',#57,#55,#19,.T.);
#52=VERTEX_POINT('',#166);
#53=VERTEX_POINT('',#167);
#54=VERTEX_POINT('',#169);
#55=VERTEX_POINT('',#189);
#56=VERTEX_POINT('',#254);
#57=VERTEX_POINT('',#256);
#58=B_SPLINE_CURVE_WITH_KNOTS('',3,(#147,#148,#149,#150,#151,#152,#153,
#154,#155,#156,#157,#158,#159,#160,#161,#162,#163,#164,#165),
 .UNSPECIFIED.,.F.,.F.,(4,1,1,1,1,1,1,1,1,1,1,1,1,1,1,1,4),(0.,0.0584486314644045,
0.116820457099655,0.1992216807909,0.281473390232903,0.363593298838027,0.445587787500702,
0.527488383217486,0.609326203776464,0.667218858349331,0.725183040733975,
0.783293147126304,0.841708223862227,0.883342208753277,0.925344188748747,
0.968241304433753,1.),.UNSPECIFIED.);
#59=B_SPLINE_CURVE_WITH_KNOTS('',3,(#170,#171,#172,#173,#174,#175,#176,
#177,#178,#179,#180,#181,#182,#183,#184,#185,#186,#187,#188),
 .UNSPECIFIED.,.F.,.F.,(4,1,1,1,1,1,1,1,1,1,1,1,1,1,1,1,4),(0.,0.0584486314644045,
0.116820457099655,0.1992216807909,0.281473390232903,0.363593298838027,0.445587787500702,
0.527488383217486,0.609326203776464,0.667218858349331,0.725183040733975,
0.783293147126304,0.841708223862227,0.883342208753277,0.925344188748747,
0.968241304433753,1.),.UNSPECIFIED.);
#60=B_SPLINE_CURVE_WITH_KNOTS('',3,(#233,#234,#235,#236,#237,#238,#239,
#240,#241,#242,#243,#244,#245,#246,#247,#248,#249,#250,#251,#252,#253),
 .UNSPECIFIED.,.F.,.F.,(4,1,1,1,1,1,1,1,1,1,1,1,1,1,1,1,1,1,4),(0.,0.0380868297412767,
0.0728346530983419,0.101362947643181,0.140359732259938,0.178851858532701,
0.217166178997617,0.271236084708874,0.325249081231462,0.379253007416138,
0.433262279174371,0.509654831620117,0.586068209381526,0.662505366673377,
0.73895166403187,0.815402758613258,0.891863901591532,0.945930094288744,
1.),.UNSPECIFIED.);
#61=B_SPLINE_CURVE_WITH_KNOTS('',3,(#257,#258,#259,#260,#261,#262,#263,
#264,#265,#266,#267,#268,#269,#270,#271,#272,#273,#274,#275,#276,#277),
 .UNSPECIFIED.,.F.,.F.,(4,1,1,1,1,1,1,1,1,1,1,1,1,1,1,1,1,1,4),(0.,0.0380868297412767,
0.0728346530983419,0.101362947643181,0.140359732259938,0.178851858532701,
0.217166178997617,0.271236084708874,0.325249081231462,0.379253007416138,
0.433262279174371,0.509654831620117,0.586068209381526,0.662505366673377,
0.73895166403187,0.815402758613258,0.891863901591532,0.945930094288744,
1.),.UNSPECIFIED.);
#62=EDGE_LOOP('',(#25,#26,#27,#28));
#63=EDGE_LOOP('',(#29,#30,#31,#32));
#64=EDGE_LOOP('',(#33,#34,#35,#36));
#65=EDGE_LOOP('',(#37,#38,#39));
#66=EDGE_LOOP('',(#40,#41,#42));
#67=FACE_BOUND('',#62,.T.);
#68=FACE_BOUND('',#63,.T.);
#69=FACE_BOUND('',#64,.T.);
#70=FACE_BOUND('',#65,.T.);
#71=FACE_BOUND('',#66,.T.);
#72=B_SPLINE_SURFACE_WITH_KNOTS('',3,1,((#109,#110),(#111,#112),(#113,#114),
(#115,#116),(#117,#118),(#119,#120),(#121,#122),(#123,#124),(#125,#126),
(#127,#128),(#129,#130),(#131,#132),(#133,#134),(#135,#136),(#137,#138),
(#139,#140),(#141,#142),(#143,#144),(#145,#146)),
 .SURF_OF_LINEAR_EXTRUSION.,.F.,.F.,.F.,(4,1,1,1,1,1,1,1,1,1,1,1,1,1,1,
1,4),(2,2),(0.,0.0584486314644045,0.116820457099655,0.1992216807909,0.281473390232903,
0.363593298838027,0.445587787500702,0.527488383217486,0.609326203776464,
0.667218858349331,0.725183040733975,0.783293147126304,0.841708223862227,
0.883342208753277,0.925344188748747,0.968241304433753,1.),(0.,1.),
 .UNSPECIFIED.);
#73=B_SPLINE_SURFACE_WITH_KNOTS('',3,1,((#191,#192),(#193,#194),(#195,#196),
(#197,#198),(#199,#200),(#201,#202),(#203,#204),(#205,#206),(#207,#208),
(#209,#210),(#211,#212),(#213,#214),(#215,#216),(#217,#218),(#219,#220),
(#221,#222),(#223,#224),(#225,#226),(#227,#228),(#229,#230),(#231,#232)),
 .SURF_OF_LINEAR_EXTRUSION.,.F.,.F.,.F.,(4,1,1,1,1,1,1,1,1,1,1,1,1,1,1,
1,1,1,4),(2,2),(0.,0.0380868297412767,0.0728346530983419,0.101362947643181,
0.140359732259938,0.178851858532701,0.217166178997617,0.271236084708874,
0.325249081231462,0.379253007416138,0.433262279174371,0.509654831620117,
0.586068209381526,0.662505366673377,0.73895166403187,0.815402758613258,
0.891863901591532,0.945930094288744,1.),(0.,1.),.UNSPECIFIED.);
#74=ADVANCED_FACE('',(#67),#72,.F.);
#75=ADVANCED_FACE('',(#68),#73,.F.);
#76=ADVANCED_FACE('',(#69),#12,.F.);
#77=ADVANCED_FACE('',(#70),#13,.T.);
#78=ADVANCED_FACE('',(#71),#14,.F.);
#79=CLOSED_SHELL('',(#74,#75,#76,#77,#78));
#80=STYLED_ITEM('',(#81),#88);
#81=PRESENTATION_STYLE_ASSIGNMENT((#82));
#82=SURFACE_STYLE_USAGE(.BOTH.,#83);
#83=SURFACE_SIDE_STYLE('',(#84));
#84=SURFACE_STYLE_FILL_AREA(#85);
#85=FILL_AREA_STYLE('',(#86));
#86=FILL_AREA_STYLE_COLOUR('',#87);
#87=COLOUR_RGB('',0.615686274509804,0.811764705882353,0.929411764705882);
#88=MANIFOLD_SOLID_BREP('Part 1',#79);
#89=SHAPE_DEFINITION_REPRESENTATION(#289,#90);
#90=SHAPE_REPRESENTATION('Part 1',(#91),#284);
#91=AXIS2_PLACEMENT_3D('',#108,#95,#96);
#92=AXIS2_PLACEMENT_3D('',#278,#100,#101);
#93=AXIS2_PLACEMENT_3D('',#281,#104,#105);
#94=AXIS2_PLACEMENT_3D('',#282,#106,#107);
#95=DIRECTION('',(0.,0.,1.));
#96=DIRECTION('',(1.,0.,0.));
#97=DIRECTION('',(0.,1.,0.));
#98=DIRECTION('',(0.,1.,0.));
#99=DIRECTION('',(0.,1.,0.));
#100=DIRECTION('',(-1.,0.,0.));
#101=DIRECTION('',(0.,0.,1.));
#102=DIRECTION('',(0.,0.,1.));
#103=DIRECTION('',(0.,0.,1.));
#104=DIRECTION('',(0.,-1.,0.));
#105=DIRECTION('',(1.,0.,0.));
#106=DIRECTION('',(0.,-1.,0.));
#107=DIRECTION('',(1.,0.,0.));
#108=CARTESIAN_POINT('',(0.,0.,0.));
#109=CARTESIAN_POINT('',(0.2,-0.6,0.00026));
#110=CARTESIAN_POINT('',(0.2,0.,0.00026));
#111=CARTESIAN_POINT('',(0.196585020656101,-0.6,0.000956580918208779));
#112=CARTESIAN_POINT('',(0.196585020656101,0.,0.000956580918208779));
#113=CARTESIAN_POINT('',(0.189759549503998,-0.6,0.00234882739572647));
#114=CARTESIAN_POINT('',(0.189759549503998,0.,0.00234882739572647));
#115=CARTESIAN_POINT('',(0.17978826189206,-0.6,0.00424799490486884));
#116=CARTESIAN_POINT('',(0.17978826189206,0.,0.00424799490486884));
#117=CARTESIAN_POINT('',(0.159494497676005,-0.6,0.00767400149107195));
#118=CARTESIAN_POINT('',(0.159494497676005,0.,0.00767400149107195));
#119=CARTESIAN_POINT('',(0.140146210161737,-0.6,0.0104098274497395));
#120=CARTESIAN_POINT('',(0.140146210161737,0.,0.0104098274497395));
#121=CARTESIAN_POINT('',(0.120016492561768,-0.6,0.012834143606724));
#122=CARTESIAN_POINT('',(0.120016492561768,0.,0.012834143606724));
#123=CARTESIAN_POINT('',(0.0998780746403916,-0.6,0.0145642346364627));
#124=CARTESIAN_POINT('',(0.0998780746403916,0.,0.0145642346364627));
#125=CARTESIAN_POINT('',(0.0805391788491617,-0.6,0.0157837824771338));
#126=CARTESIAN_POINT('',(0.0805391788491617,0.,0.0157837824771338));
#127=CARTESIAN_POINT('',(0.060206773675631,-0.6,0.015887744080428));
#128=CARTESIAN_POINT('',(0.060206773675631,0.,0.015887744080428));
#129=CARTESIAN_POINT('',(0.0502779774634821,-0.6,0.0154072617590602));
#130=CARTESIAN_POINT('',(0.0502779774634821,0.,0.0154072617590602));
#131=CARTESIAN_POINT('',(0.0398475803617342,-0.6,0.0145789106882698));
#132=CARTESIAN_POINT('',(0.0398475803617342,0.,0.0145789106882698));
#133=CARTESIAN_POINT('',(0.0302519316956378,-0.6,0.0133887598625536));
#134=CARTESIAN_POINT('',(0.0302519316956378,0.,0.0133887598625536));
#135=CARTESIAN_POINT('',(0.0200878218831183,-0.6,0.0113775975308038));
#136=CARTESIAN_POINT('',(0.0200878218831183,0.,0.0113775975308038));
#137=CARTESIAN_POINT('',(0.015084747206061,-0.6,0.00997023372360743));
#138=CARTESIAN_POINT('',(0.015084747206061,0.,0.00997023372360743));
#139=CARTESIAN_POINT('',(0.0100316899488608,-0.6,0.00838766654139724));
#140=CARTESIAN_POINT('',(0.0100316899488608,0.,0.00838766654139724));
#141=CARTESIAN_POINT('',(0.0049944041355747,-0.6,0.00614903024704934));
#142=CARTESIAN_POINT('',(0.0049944041355747,0.,0.00614903024704934));
#143=CARTESIAN_POINT('',(0.00324443817793344,-0.6,0.00485183067107131));
#144=CARTESIAN_POINT('',(0.00324443817793344,0.,0.00485183067107131));
#145=CARTESIAN_POINT('',(0.0025,-0.6,0.0043));
#146=CARTESIAN_POINT('',(0.0025,0.,0.0043));
#147=CARTESIAN_POINT('',(0.2,0.,0.00026));
#148=CARTESIAN_POINT('',(0.196585020656101,0.,0.000956580918208779));
#149=CARTESIAN_POINT('',(0.189759549503998,0.,0.00234882739572647));
#150=CARTESIAN_POINT('',(0.17978826189206,0.,0.00424799490486884));
#151=CARTESIAN_POINT('',(0.159494497676005,0.,0.00767400149107195));
#152=CARTESIAN_POINT('',(0.140146210161737,0.,0.0104098274497395));
#153=CARTESIAN_POINT('',(0.120016492561768,0.,0.012834143606724));
#154=CARTESIAN_POINT('',(0.0998780746403916,0.,0.0145642346364627));
#155=CARTESIAN_POINT('',(0.0805391788491617,0.,0.0157837824771338));
#156=CARTESIAN_POINT('',(0.060206773675631,0.,0.015887744080428));
#157=CARTESIAN_POINT('',(0.0502779774634821,0.,0.0154072617590602));
#158=CARTESIAN_POINT('',(0.0398475803617342,0.,0.0145789106882698));
#159=CARTESIAN_POINT('',(0.0302519316956378,0.,0.0133887598625536));
#160=CARTESIAN_POINT('',(0.0200878218831183,0.,0.0113775975308038));
#161=CARTESIAN_POINT('',(0.015084747206061,0.,0.00997023372360743));
#162=CARTESIAN_POINT('',(0.0100316899488608,0.,0.00838766654139724));
#163=CARTESIAN_POINT('',(0.0049944041355747,0.,0.00614903024704934));
#164=CARTESIAN_POINT('',(0.00324443817793344,0.,0.00485183067107131));
#165=CARTESIAN_POINT('',(0.0025,0.,0.0043));
#166=CARTESIAN_POINT('',(0.2,0.,0.00026));
#167=CARTESIAN_POINT('',(0.0025,0.,0.0043));
#168=CARTESIAN_POINT('',(0.0025,-0.6,0.0043));
#169=CARTESIAN_POINT('',(0.0025,-0.6,0.0043));
#170=CARTESIAN_POINT('',(0.2,-0.6,0.00026));
#171=CARTESIAN_POINT('',(0.196585020656101,-0.6,0.000956580918208779));
#172=CARTESIAN_POINT('',(0.189759549503998,-0.6,0.00234882739572647));
#173=CARTESIAN_POINT('',(0.17978826189206,-0.6,0.00424799490486884));
#174=CARTESIAN_POINT('',(0.159494497676005,-0.6,0.00767400149107195));
#175=CARTESIAN_POINT('',(0.140146210161737,-0.6,0.0104098274497395));
#176=CARTESIAN_POINT('',(0.120016492561768,-0.6,0.012834143606724));
#177=CARTESIAN_POINT('',(0.0998780746403916,-0.6,0.0145642346364627));
#178=CARTESIAN_POINT('',(0.0805391788491617,-0.6,0.0157837824771338));
#179=CARTESIAN_POINT('',(0.060206773675631,-0.6,0.015887744080428));
#180=CARTESIAN_POINT('',(0.0502779774634821,-0.6,0.0154072617590602));
#181=CARTESIAN_POINT('',(0.0398475803617342,-0.6,0.0145789106882698));
#182=CARTESIAN_POINT('',(0.0302519316956378,-0.6,0.0133887598625536));
#183=CARTESIAN_POINT('',(0.0200878218831183,-0.6,0.0113775975308038));
#184=CARTESIAN_POINT('',(0.015084747206061,-0.6,0.00997023372360743));
#185=CARTESIAN_POINT('',(0.0100316899488608,-0.6,0.00838766654139724));
#186=CARTESIAN_POINT('',(0.0049944041355747,-0.6,0.00614903024704934));
#187=CARTESIAN_POINT('',(0.00324443817793344,-0.6,0.00485183067107131));
#188=CARTESIAN_POINT('',(0.0025,-0.6,0.0043));
#189=CARTESIAN_POINT('',(0.2,-0.6,0.00026));
#190=CARTESIAN_POINT('',(0.2,-0.6,0.00026));
#191=CARTESIAN_POINT('',(0.0025,-0.6,0.0043));
#192=CARTESIAN_POINT('',(0.0025,6.66133814775094E-16,0.0043));
#193=CARTESIAN_POINT('',(0.00118298136257599,-0.6,0.00285539082631429));
#194=CARTESIAN_POINT('',(0.00118298136257599,6.66133814775094E-16,0.00285539082631429));
#195=CARTESIAN_POINT('',(-0.00133559516984854,-0.6,9.28188626506796E-5));
#196=CARTESIAN_POINT('',(-0.00133559516984854,6.66133814775094E-16,9.28188626506796E-5));
#197=CARTESIAN_POINT('',(0.00254435966585079,-0.6,-0.00357965092468791));
#198=CARTESIAN_POINT('',(0.00254435966585079,6.66133814775094E-16,-0.00357965092468791));
#199=CARTESIAN_POINT('',(0.00494539015333903,-0.6,-0.00457846495574142));
#200=CARTESIAN_POINT('',(0.00494539015333903,6.66133814775094E-16,-0.00457846495574142));
#201=CARTESIAN_POINT('',(0.0100764552454574,-0.6,-0.00617479133010313));
#202=CARTESIAN_POINT('',(0.0100764552454574,6.66133814775094E-16,-0.00617479133010313));
#203=CARTESIAN_POINT('',(0.0150858876577767,-0.6,-0.0069602550067948));
#204=CARTESIAN_POINT('',(0.0150858876577767,6.66133814775094E-16,-0.0069602550067948));
#205=CARTESIAN_POINT('',(0.0201124712138336,-0.6,-0.00756666533808077));
#206=CARTESIAN_POINT('',(0.0201124712138336,6.66133814775094E-16,-0.00756666533808077));
#207=CARTESIAN_POINT('',(0.0302740776750157,-0.6,-0.00830337969022212));
#208=CARTESIAN_POINT('',(0.0302740776750157,6.66133814775094E-16,-0.00830337969022212));
#209=CARTESIAN_POINT('',(0.0398586925960843,-0.6,-0.00849785065861354));
#210=CARTESIAN_POINT('',(0.0398586925960843,6.66133814775094E-16,-0.00849785065861354));
#211=CARTESIAN_POINT('',(0.0502842107745881,-0.6,-0.00846511664234576));
#212=CARTESIAN_POINT('',(0.0502842107745881,6.66133814775094E-16,-0.00846511664234576));
#213=CARTESIAN_POINT('',(0.0602110128969045,-0.6,-0.00825631519533497));
#214=CARTESIAN_POINT('',(0.0602110128969045,6.66133814775094E-16,-0.00825631519533497));
#215=CARTESIAN_POINT('',(0.080533304780975,-0.6,-0.00763697628201173));
#216=CARTESIAN_POINT('',(0.080533304780975,6.66133814775094E-16,-0.00763697628201173));
#217=CARTESIAN_POINT('',(0.0998705338536287,-0.6,-0.00672814810020824));
#218=CARTESIAN_POINT('',(0.0998705338536287,6.66133814775094E-16,-0.00672814810020824));
#219=CARTESIAN_POINT('',(0.120001446377481,-0.6,-0.00552953596511598));
#220=CARTESIAN_POINT('',(0.120001446377481,6.66133814775094E-16,-0.00552953596511598));
#221=CARTESIAN_POINT('',(0.140131805995826,-0.6,-0.00427321498620011));
#222=CARTESIAN_POINT('',(0.140131805995826,6.66133814775094E-16,-0.00427321498620011));
#223=CARTESIAN_POINT('',(0.159475869304788,-0.6,-0.00305731976112148));
#224=CARTESIAN_POINT('',(0.159475869304788,6.66133814775094E-16,-0.00305731976112148));
#225=CARTESIAN_POINT('',(0.179775164402279,-0.6,-0.00164939187314965));
#226=CARTESIAN_POINT('',(0.179775164402279,6.66133814775094E-16,-0.00164939187314965));
#227=CARTESIAN_POINT('',(0.189753938751083,-0.6,-0.000982841932781936));
#228=CARTESIAN_POINT('',(0.189753938751083,6.66133814775094E-16,-0.000982841932781936));
#229=CARTESIAN_POINT('',(0.196584568070416,-0.6,-0.000500952826387447));
#230=CARTESIAN_POINT('',(0.196584568070416,6.66133814775094E-16,-0.000500952826387447));
#231=CARTESIAN_POINT('',(0.2,-0.6,-0.00026));
#232=CARTESIAN_POINT('',(0.2,6.66133814775094E-16,-0.00026));
#233=CARTESIAN_POINT('',(0.0025,0.,0.0043));
#234=CARTESIAN_POINT('',(0.00118298136257599,0.,0.00285539082631429));
#235=CARTESIAN_POINT('',(-0.00133559516984854,0.,9.28188626506796E-5));
#236=CARTESIAN_POINT('',(0.00254435966585079,0.,-0.00357965092468791));
#237=CARTESIAN_POINT('',(0.00494539015333903,0.,-0.00457846495574142));
#238=CARTESIAN_POINT('',(0.0100764552454574,0.,-0.00617479133010313));
#239=CARTESIAN_POINT('',(0.0150858876577767,0.,-0.0069602550067948));
#240=CARTESIAN_POINT('',(0.0201124712138336,0.,-0.00756666533808077));
#241=CARTESIAN_POINT('',(0.0302740776750157,0.,-0.00830337969022212));
#242=CARTESIAN_POINT('',(0.0398586925960843,0.,-0.00849785065861354));
#243=CARTESIAN_POINT('',(0.0502842107745881,0.,-0.00846511664234576));
#244=CARTESIAN_POINT('',(0.0602110128969045,0.,-0.00825631519533497));
#245=CARTESIAN_POINT('',(0.080533304780975,0.,-0.00763697628201173));
#246=CARTESIAN_POINT('',(0.0998705338536287,0.,-0.00672814810020824));
#247=CARTESIAN_POINT('',(0.120001446377481,0.,-0.00552953596511598));
#248=CARTESIAN_POINT('',(0.140131805995826,0.,-0.00427321498620011));
#249=CARTESIAN_POINT('',(0.159475869304788,0.,-0.00305731976112148));
#250=CARTESIAN_POINT('',(0.179775164402279,0.,-0.00164939187314965));
#251=CARTESIAN_POINT('',(0.189753938751083,0.,-0.000982841932781936));
#252=CARTESIAN_POINT('',(0.196584568070416,0.,-0.000500952826387447));
#253=CARTESIAN_POINT('',(0.2,0.,-0.00026));
#254=CARTESIAN_POINT('',(0.2,0.,-0.00026));
#255=CARTESIAN_POINT('',(0.2,-0.6,-0.00026));
#256=CARTESIAN_POINT('',(0.2,-0.6,-0.00026));
#257=CARTESIAN_POINT('',(0.0025,-0.6,0.0043));
#258=CARTESIAN_POINT('',(0.00118298136257599,-0.6,0.00285539082631429));
#259=CARTESIAN_POINT('',(-0.00133559516984854,-0.6,9.28188626506796E-5));
#260=CARTESIAN_POINT('',(0.00254435966585079,-0.6,-0.00357965092468791));
#261=CARTESIAN_POINT('',(0.00494539015333903,-0.6,-0.00457846495574142));
#262=CARTESIAN_POINT('',(0.0100764552454574,-0.6,-0.00617479133010313));
#263=CARTESIAN_POINT('',(0.0150858876577767,-0.6,-0.0069602550067948));
#264=CARTESIAN_POINT('',(0.0201124712138336,-0.6,-0.00756666533808077));
#265=CARTESIAN_POINT('',(0.0302740776750157,-0.6,-0.00830337969022212));
#266=CARTESIAN_POINT('',(0.0398586925960843,-0.6,-0.00849785065861354));
#267=CARTESIAN_POINT('',(0.0502842107745881,-0.6,-0.00846511664234576));
#268=CARTESIAN_POINT('',(0.0602110128969045,-0.6,-0.00825631519533497));
#269=CARTESIAN_POINT('',(0.080533304780975,-0.6,-0.00763697628201173));
#270=CARTESIAN_POINT('',(0.0998705338536287,-0.6,-0.00672814810020824));
#271=CARTESIAN_POINT('',(0.120001446377481,-0.6,-0.00552953596511598));
#272=CARTESIAN_POINT('',(0.140131805995826,-0.6,-0.00427321498620011));
#273=CARTESIAN_POINT('',(0.159475869304788,-0.6,-0.00305731976112148));
#274=CARTESIAN_POINT('',(0.179775164402279,-0.6,-0.00164939187314965));
#275=CARTESIAN_POINT('',(0.189753938751083,-0.6,-0.000982841932781936));
#276=CARTESIAN_POINT('',(0.196584568070416,-0.6,-0.000500952826387447));
#277=CARTESIAN_POINT('',(0.2,-0.6,-0.00026));
#278=CARTESIAN_POINT('',(0.2,-0.6,0.));
#279=CARTESIAN_POINT('',(0.2,0.,0.));
#280=CARTESIAN_POINT('',(0.2,-0.6,0.));
#281=CARTESIAN_POINT('',(0.0993322024150757,-0.6,0.00369494671090723));
#282=CARTESIAN_POINT('',(0.0993322024150757,0.,0.00369494671090723));
#283=MECHANICAL_DESIGN_GEOMETRIC_PRESENTATION_REPRESENTATION('',(#80),#284);
#284=(
GEOMETRIC_REPRESENTATION_CONTEXT(3)
GLOBAL_UNCERTAINTY_ASSIGNED_CONTEXT((#285))
GLOBAL_UNIT_ASSIGNED_CONTEXT((#288,#287,#286))
REPRESENTATION_CONTEXT('Part 1','TOP_LEVEL_ASSEMBLY_PART')
);
#285=UNCERTAINTY_MEASURE_WITH_UNIT(LENGTH_MEASURE(2.E-5),#288,
'DISTANCE_ACCURACY_VALUE','Maximum Tolerance applied to model');
#286=(
NAMED_UNIT(*)
SI_UNIT($,.STERADIAN.)
SOLID_ANGLE_UNIT()
);
#287=(
NAMED_UNIT(*)
PLANE_ANGLE_UNIT()
SI_UNIT($,.RADIAN.)
);
#288=(
LENGTH_UNIT()
NAMED_UNIT(*)
SI_UNIT($,.METRE.)
);
#289=PRODUCT_DEFINITION_SHAPE('','',#290);
#290=PRODUCT_DEFINITION('','',#292,#291);
#291=PRODUCT_DEFINITION_CONTEXT('',#298,'design');
#292=PRODUCT_DEFINITION_FORMATION_WITH_SPECIFIED_SOURCE('','',#294,
 .NOT_KNOWN.);
#293=PRODUCT_RELATED_PRODUCT_CATEGORY('','',(#294));
#294=PRODUCT('Part 1','Part 1','Part 1',(#296));
#295=PRODUCT_CATEGORY('','');
#296=PRODUCT_CONTEXT('',#298,'mechanical');
#297=APPLICATION_PROTOCOL_DEFINITION('international standard',
'ap242_managed_model_based_3d_engineering',2020,#298);
#298=APPLICATION_CONTEXT('managed model based 3d engineering');
ENDSEC;
END-ISO-10303-21;
